<?xml version="1.0" encoding="iso-8859-1"?>
<!-- Uploaded to: SVG Repo, www.svgrepo.com, Generator: SVG Repo Mixer Tools -->
<!DOCTYPE svg PUBLIC "-//W3C//DTD SVG 1.1//EN" "http://www.w3.org/Graphics/SVG/1.1/DTD/svg11.dtd">
<svg height="800px" width="800px" version="1.1" id="Capa_1" xmlns="http://www.w3.org/2000/svg" xmlns:xlink="http://www.w3.org/1999/xlink" 
	 viewBox="0 0 58.82 58.82" xml:space="preserve">
<path style="fill:#231F20;" d="M52.575,44.293h-6.483v-0.528c0-1.598-1.276-3-2.73-3H28.856l-1.217-13.407
	c-0.103-1.267-0.899-2.723-1.913-3.577l-1.79-21.035c-0.067-0.796-0.442-1.52-1.057-2.038c-0.613-0.518-1.394-0.766-2.187-0.698
	L8.164,1.077C6.516,1.218,5.29,2.673,5.429,4.323l0.555,6.342c-0.847-0.422-1.707-0.32-2.237,0.258
	c-0.266,0.289-0.566,0.823-0.489,1.729L6.94,55.91c0.136,1.604,1.556,2.909,3.165,2.909h13.92H29.4c0.007,0.001,0.015,0,0.02,0
	h13.672c1.654,0,3-1.346,3-3v-0.528h6.483c1.654,0,3-1.346,3-3v-4.998C55.575,45.638,54.229,44.293,52.575,44.293z M8.112,12.048
	L7.749,7.896l14.514-1.235l1.334,15.668L8.112,12.048z M8.333,3.071l12.529-1.066c0.259-0.022,0.521,0.06,0.728,0.233
	c0.205,0.173,0.331,0.414,0.354,0.678l0.149,1.752L7.575,5.903L7.421,4.152C7.375,3.602,7.784,3.117,8.333,3.071z M24.025,56.819
	h-13.92c-0.576,0-1.124-0.503-1.173-1.078L5.255,12.553l19.007,12.619c0.66,0.438,1.319,1.557,1.384,2.357l2.659,29.291H24.025z
	 M44.091,55.819c0,0.551-0.448,1-1,1H30.313l-1.275-14.054h14.323c0.25,0,0.73,0.422,0.73,1V55.819z M53.575,52.291
	c0,0.551-0.448,1-1,1h-6.483v-6.998h6.483c0.552,0,1,0.449,1,1V52.291z M23.143,51.99c0,0.276-0.224,0.5-0.5,0.5h-9.001
	c-0.276,0-0.5-0.224-0.5-0.5s0.224-0.5,0.5-0.5h9.001C22.919,51.49,23.143,51.714,23.143,51.99z M23.143,49.792
	c0,0.276-0.224,0.5-0.5,0.5h-9.001c-0.276,0-0.5-0.224-0.5-0.5s0.224-0.5,0.5-0.5h9.001C22.919,49.292,23.143,49.515,23.143,49.792z
	 M23.143,47.594c0,0.276-0.224,0.5-0.5,0.5h-9.001c-0.276,0-0.5-0.224-0.5-0.5s0.224-0.5,0.5-0.5h9.001
	C22.919,47.094,23.143,47.318,23.143,47.594z"/>
</svg>